<?xml version="1.0" standalone="no"?>
<svg version="1.1" id="Layer_1" xmlns="http://www.w3.org/2000/svg" xmlns:xlink="http://www.w3.org/1999/xlink" x="0px" y="0px" width="595.28px" height="595.28px" viewBox="0 0 595.28 595.28" enable-background="new 0 0 595.28 595.28" xml:space="preserve">
<path id="color_x5F_5" fill="#FFD2BB" d="M378.061,251.452c0,0-2.273-1.949-4.684-3.135c-0.062-0.03-0.123-0.055-0.185-0.084
	c-1.387-0.658-2.8-1.046-3.837-0.645c-1.547,0.6,0.234,3.817,0.659,4.541c0.055,0.092,0.09,0.15,0.09,0.15s-0.062-0.034-0.146-0.081
	c-0.425-0.236-1.758-0.997-2.622-1.702c-1.036-0.846-2.816-2.205-7.256-1.919c-0.585,0.038-1.145-0.066-1.68-0.264l-10.445,12.81
	c0.565,0.684,1.201,1.326,1.914,1.907l6.498,5.298c5.411,4.413,10.358,7.462,14.91,3.484l1.691,1.379l0.349,0.284l1.558,1.271
	l-0.066-0.378l5.25,1.5l2.184-3.889l4.512-8.038l1.305-2.323l2.476,0.693l-12.067-9.842
	C378.345,252.125,378.211,251.786,378.061,251.452z M356.632,263.616c-0.346,0.343-1.081,0.172-1.643-0.384
	c-0.558-0.551-0.73-1.279-0.378-1.627c0.344-0.345,1.081-0.176,1.64,0.381C356.808,262.541,356.985,263.27,356.632,263.616z
	 M361.032,253.73c0.346-0.343,1.084-0.177,1.64,0.38c0.558,0.555,0.733,1.284,0.382,1.63c-0.345,0.343-1.083,0.178-1.642-0.382
	C360.853,254.805,360.679,254.078,361.032,253.73z M362.726,289.224c0.521,1.318,0.655,2.69,0.471,3.995
	c-0.33,2.326-1.694,4.43-3.8,5.628c-0.31,0.176-0.628,0.339-0.968,0.474c-0.205,0.081-0.412,0.146-0.619,0.208
	c-1.468,0.44-2.98,0.412-4.375-0.005c-1.558-0.466-2.961-1.418-3.979-2.756c-0.429-0.563-0.794-1.19-1.067-1.882
	c-0.987-2.502-0.608-5.2,0.776-7.256c0.355-0.528,0.783-1.007,1.266-1.436c0.65-0.579,1.403-1.062,2.259-1.4
	c3.115-1.229,6.56-0.258,8.658,2.167C361.914,287.615,362.389,288.37,362.726,289.224z M420.113,340.207
	c-0.006,0.206-0.019,0.412-0.041,0.619c-0.051,0.458-0.136,0.918-0.271,1.376c-0.148,0.503-0.345,0.979-0.578,1.426
	c-1.234,2.363-3.569,3.904-6.137,4.152c-0.945,0.091-1.922,0.013-2.887-0.273c-2.179-0.642-3.85-2.179-4.754-4.099
	c-0.316-0.67-0.537-1.386-0.652-2.129c-0.033-0.209-0.058-0.419-0.073-0.632c-0.066-0.92,0.02-1.869,0.298-2.809
	c0.799-2.712,2.926-4.658,5.443-5.344c0.864-0.236,1.772-0.328,2.692-0.244c0.488,0.044,0.979,0.134,1.466,0.277
	c1.925,0.569,3.45,1.837,4.404,3.447C419.77,337.23,420.16,338.693,420.113,340.207z"></path>
<path id="color_x5F_3" fill="#E84393" d="M391.646,213.881v-8.071c0-0.501,0.406-0.905,0.906-0.905c0.501,0,0.906,0.404,0.906,0.905
	v8.071c0,0.5-0.405,0.904-0.906,0.904C392.052,214.785,391.646,214.381,391.646,213.881z M392.552,238.99
	c0.501,0,0.906-0.406,0.906-0.904v-8.071c0-0.501-0.405-0.906-0.906-0.906c-0.5,0-0.906,0.405-0.906,0.906v8.071
	C391.646,238.584,392.052,238.99,392.552,238.99z M399.712,221.947c0,0.5,0.406,0.905,0.907,0.905h8.071
	c0.499,0,0.904-0.405,0.904-0.905s-0.405-0.905-0.904-0.905h-8.071C400.118,221.042,399.712,221.447,399.712,221.947z
	 M376.415,222.853h8.07c0.499,0,0.904-0.405,0.904-0.905s-0.405-0.905-0.904-0.905h-8.07c-0.501,0-0.906,0.405-0.906,0.905
	S375.914,222.853,376.415,222.853z M398.896,216.884l5.707-5.707c0.355-0.353,0.355-0.927,0-1.281c-0.354-0.354-0.928-0.354-1.279,0
	l-5.708,5.707c-0.353,0.355-0.353,0.928,0,1.281C397.97,217.236,398.542,217.236,398.896,216.884z M386.208,227.011l-5.709,5.706
	c-0.35,0.355-0.35,0.928,0,1.282c0.355,0.354,0.927,0.354,1.281,0l5.708-5.707c0.354-0.354,0.354-0.927,0-1.281
	C387.136,226.658,386.561,226.658,386.208,227.011z M403.323,233.999c0.352,0.354,0.926,0.354,1.279,0
	c0.355-0.354,0.355-0.927,0-1.282l-5.707-5.706c-0.354-0.353-0.926-0.353-1.28,0c-0.353,0.354-0.353,0.928,0,1.281L403.323,233.999z
	 M386.208,216.884c0.353,0.353,0.928,0.353,1.28,0c0.354-0.354,0.354-0.926,0-1.281l-5.708-5.707c-0.354-0.354-0.926-0.354-1.281,0
	c-0.35,0.354-0.35,0.929,0,1.281L386.208,216.884z M476.328,372.896c-0.5,0-0.906,0.403-0.906,0.905v8.071
	c0,0.499,0.406,0.904,0.906,0.904c0.501,0,0.906-0.405,0.906-0.904v-8.071C477.234,373.3,476.829,372.896,476.328,372.896z
	 M476.328,397.101c-0.5,0-0.906,0.405-0.906,0.905v8.071c0,0.499,0.406,0.904,0.906,0.904c0.501,0,0.906-0.405,0.906-0.904v-8.071
	C477.234,397.506,476.829,397.101,476.328,397.101z M492.467,389.034h-8.071c-0.501,0-0.907,0.404-0.907,0.904
	c0,0.501,0.406,0.905,0.907,0.905h8.071c0.499,0,0.904-0.404,0.904-0.905C493.371,389.438,492.966,389.034,492.467,389.034z
	 M469.166,389.938c0-0.5-0.405-0.904-0.904-0.904h-8.07c-0.501,0-0.906,0.404-0.906,0.904c0,0.501,0.405,0.905,0.906,0.905h8.07
	C468.761,390.844,469.166,390.439,469.166,389.938z M482.672,384.875l5.707-5.707c0.355-0.353,0.355-0.926,0-1.28
	c-0.354-0.354-0.928-0.354-1.279,0l-5.708,5.707c-0.353,0.354-0.353,0.927,0,1.28C481.746,385.229,482.318,385.229,482.672,384.875z
	 M469.984,395.002l-5.709,5.706c-0.35,0.355-0.35,0.928,0,1.282c0.355,0.354,0.927,0.354,1.281,0l5.708-5.707
	c0.354-0.354,0.354-0.926,0-1.281C470.912,394.649,470.337,394.649,469.984,395.002z M482.672,395.002
	c-0.354-0.353-0.926-0.353-1.28,0c-0.353,0.355-0.353,0.928,0,1.281l5.708,5.707c0.352,0.354,0.926,0.354,1.279,0
	c0.355-0.354,0.355-0.927,0-1.282L482.672,395.002z M465.557,377.888c-0.354-0.354-0.926-0.354-1.281,0
	c-0.35,0.354-0.35,0.928,0,1.28l5.709,5.707c0.353,0.354,0.928,0.354,1.28,0c0.354-0.354,0.354-0.926,0-1.28L465.557,377.888z
	 M215.341,296.619c-0.5,0-0.906,0.403-0.906,0.905v8.071c0,0.499,0.406,0.904,0.906,0.904c0.501,0,0.906-0.405,0.906-0.904v-8.071
	C216.247,297.022,215.842,296.619,215.341,296.619z M215.341,320.823c-0.5,0-0.906,0.405-0.906,0.905v8.071
	c0,0.499,0.406,0.904,0.906,0.904c0.501,0,0.906-0.405,0.906-0.904v-8.071C216.247,321.229,215.842,320.823,215.341,320.823z
	 M231.479,312.757h-8.071c-0.501,0-0.907,0.404-0.907,0.904c0,0.501,0.406,0.905,0.907,0.905h8.071c0.499,0,0.904-0.404,0.904-0.905
	C232.384,313.161,231.979,312.757,231.479,312.757z M208.179,313.661c0-0.5-0.405-0.904-0.904-0.904h-8.07
	c-0.501,0-0.906,0.404-0.906,0.904c0,0.501,0.405,0.905,0.906,0.905h8.07C207.773,314.566,208.179,314.162,208.179,313.661z
	 M221.685,308.598l5.707-5.707c0.355-0.353,0.355-0.926,0-1.28c-0.354-0.354-0.928-0.354-1.279,0l-5.708,5.707
	c-0.353,0.354-0.353,0.927,0,1.28C220.759,308.951,221.331,308.951,221.685,308.598z M208.997,318.725l-5.709,5.706
	c-0.35,0.355-0.35,0.928,0,1.282c0.355,0.354,0.927,0.354,1.281,0l5.708-5.707c0.354-0.354,0.354-0.926,0-1.281
	C209.925,318.372,209.35,318.372,208.997,318.725z M221.685,318.725c-0.354-0.353-0.926-0.353-1.28,0
	c-0.353,0.355-0.353,0.928,0,1.281l5.708,5.707c0.352,0.354,0.926,0.354,1.279,0c0.355-0.354,0.355-0.927,0-1.282L221.685,318.725z
	 M204.569,301.61c-0.354-0.354-0.926-0.354-1.281,0c-0.35,0.354-0.35,0.928,0,1.28l5.709,5.707c0.353,0.354,0.928,0.354,1.28,0
	c0.354-0.354,0.354-0.926,0-1.28L204.569,301.61z M390.81,281.367c0.009-0.146,0.021-0.293,0.03-0.44
	c0.063-0.882,0.15-1.778,0.261-2.675c0.546-4.46,1.599-8.947,2.35-11.811c0.39-1.488,0.697-2.533,0.811-2.912
	c0.03-0.102,0.049-0.162,0.049-0.162l-3.774-1.057l-2.476-0.693l-1.305,2.323l-4.512,8.038l-2.184,3.889l-5.25-1.5l0.066,0.378
	l0.684,3.872c0,0-3,14,2.75,25c0.194,0.371,0.396,0.768,0.604,1.18c5.278,10.491,14.695,33.73,16.74,38.81
	c0.259,0.641,0.406,1.01,0.406,1.01l8.734-3.339c-0.033-0.209-0.058-0.419-0.073-0.632c-0.066-0.92,0.02-1.869,0.298-2.809
	c0.799-2.712,2.926-4.658,5.443-5.344c-5.447-11.911-17.71-39.377-19.45-48.947C390.85,282.659,390.776,281.92,390.81,281.367z"></path>
<path id="color_x5F_2" fill="#FBC02D" d="M425.098,309.11c-0.161,0.115-0.32,0.233-0.476,0.36l-0.45-0.82
	C424.479,308.805,424.787,308.958,425.098,309.11z M429.046,378.335h22.535c3.539,0,6.407-2.87,6.407-6.408
	c0-3.539-2.868-6.408-6.407-6.408h-6.355V317.49c12.958-1.508,23.016-12.515,23.016-25.876c0-14.392-11.666-26.059-26.06-26.059
	h-13.788h-0.734c-0.425,0-0.847,0.012-1.266,0.032c-5.652,0.27-10.829,2.345-14.977,5.655c4.981,3.286,10.248,7.562,14.977,12.192
	c0.679,0.665,1.346,1.336,2,2.013c3.328,3.446,6.303,7.031,8.609,10.508c3.859,5.818,5.844,11.332,4.443,15.377
	c-0.198,0.571-0.54,0.99-0.977,1.306c-0.379,1.406-1.106,3.129-2.086,5.033c-0.416,0.808-0.877,1.648-1.381,2.514v11.865
	l2.188,3.992l-0.481,0.105c3.365,6.515,6.463,16.03,1.978,24.245c-0.859,1.574-2.146,2.872-3.685,3.954v1.172h-1.914
	c-2.069,1.118-4.402,1.957-6.695,2.623c-0.673,0.195-1.342,0.377-2,0.545c-4.4,1.128-8.278,1.72-9.268,2.599
	c-1.223,0.509-2.333,1.047-3.354,1.591c0.771,1.603,1.437,3.416,1.958,5.458h7.834v36.666v0.351l-5.229,1.649l-1.452,0.458
	c-0.034,1.432-0.091,2.789-0.178,4.038l6.858-2.163v7.239c0.86-0.562,1.887-0.891,2.991-0.891c0.897,0,1.742,0.22,2.49,0.603v-6.145
	l32.458,10.237c0.194-1.352,0.879-2.544,1.873-3.389l-34.331-10.829V378.335z M387.082,426.86c1.034,0.816,1.766,1.996,2.003,3.348
	l19.459-6.137l-0.692-3.763L387.082,426.86z M399.099,372.718c-0.332-0.987-0.682-2.089-1.062-3.354
	c-0.026-0.089-0.039-0.179-0.063-0.269c-0.33,0.082-0.627,0.168-0.86,0.269c-10.907,2.181-17.716,4.882-22.547,6.474
	c0.213,0.777,0.405,1.589,0.572,2.438c0.271,0.035,0.547,0.06,0.828,0.06h24.164L399.099,372.718z M363.196,293.219
	c-0.33,2.326-1.694,4.43-3.8,5.628c-0.31,0.176-0.628,0.339-0.968,0.474c-0.205,0.081-0.412,0.146-0.619,0.208l1.849,1.634
	l1.176,1.04c1.719,1.519,4.34,1.356,5.857-0.36c1.516-1.716,1.354-4.337-0.364-5.856L363.196,293.219z M345.091,281.475l5.339,4.719
	c-0.482,0.429-0.91,0.908-1.266,1.436l-5.152-4.554c-0.303,0.404-0.613,0.805-0.951,1.188c-4.289,4.852-10.667,7.089-17.062,5.983
	c-3.38-0.584-6.532-2.1-9.116-4.383c-3.712-3.28-5.926-7.81-6.233-12.753c-0.307-4.943,1.329-9.708,4.606-13.418
	c4.289-4.854,10.668-7.091,17.063-5.986c0.979,0.169,1.936,0.426,2.868,0.748c2.286,0.789,4.411,2.013,6.244,3.634
	c0.823,0.728,1.561,1.525,2.232,2.367c2.356,2.952,3.764,6.54,4.003,10.387C347.902,274.623,346.993,278.295,345.091,281.475z
	 M342.742,281.42c0.04-0.176,0.117-0.356,0.257-0.514c0.052-0.059,0.112-0.097,0.171-0.143c1.83-2.908,2.719-6.298,2.5-9.797
	c-0.274-4.41-2.251-8.452-5.563-11.38c-2.304-2.036-5.115-3.388-8.129-3.908c-5.705-0.986-11.396,1.01-15.223,5.34
	c-2.924,3.309-4.383,7.559-4.108,11.969c0.273,4.411,2.249,8.452,5.561,11.378c2.307,2.038,5.118,3.39,8.133,3.911
	c5.705,0.986,11.396-1.009,15.222-5.337C341.99,282.454,342.377,281.943,342.742,281.42z"></path>
<path id="color_x5F_1" fill="#0984E3" d="M472.406,431.164c0,3.028-2.456,5.482-5.481,5.482c-3.028,0-5.484-2.454-5.484-5.482
	c0-0.268,0.025-0.53,0.063-0.788c0.194-1.352,0.879-2.544,1.873-3.389c0.956-0.813,2.193-1.306,3.548-1.306
	C469.95,425.682,472.406,428.136,472.406,431.164z M387.082,426.86c-0.933-0.736-2.107-1.178-3.389-1.178
	c-3.026,0-5.482,2.454-5.482,5.482s2.456,5.482,5.482,5.482c3.028,0,5.48-2.454,5.48-5.482c0-0.327-0.034-0.645-0.089-0.956
	C388.848,428.855,388.116,427.676,387.082,426.86z M429.046,426.285c-0.748-0.383-1.593-0.603-2.49-0.603
	c-1.104,0-2.131,0.329-2.991,0.891c-1.5,0.978-2.493,2.667-2.493,4.592c0,3.028,2.455,5.482,5.484,5.482
	c3.025,0,5.48-2.454,5.48-5.482C432.036,429.034,430.819,427.192,429.046,426.285z M438.71,336.148
	c3.365,6.515,6.463,16.03,1.978,24.245c-0.859,1.574-2.146,2.872-3.685,3.954c-0.602,0.424-1.245,0.811-1.914,1.172
	c-2.069,1.118-4.402,1.957-6.695,2.623c-0.673,0.195-1.342,0.377-2,0.545c-4.4,1.128-8.278,1.72-9.268,2.599
	c-1.223,0.509-2.333,1.047-3.354,1.591c0.771,1.603,1.437,3.416,1.958,5.458c0.975,3.823,1.437,8.459,1.092,14.096
	c-0.297,4.891,0.162,14.465,0.1,22.57h6.643v0.351l-5.229,1.649h-1.442c-0.003,0.153-0.006,0.307-0.01,0.458
	c-0.034,1.432-0.091,2.789-0.178,4.038c-0.146,2.086-0.375,3.866-0.729,5.15l1.201,10.25l-20.708,0.366c0,0-4.687,0.192-4.639-2.119
	c0.071-3.556,9.144-2.617,12.354-3.966c1.511-0.634,4.854-4.411,4.854-4.411l-0.496-2.696l-0.692-3.763l-0.607-3.307h-31.415
	c-0.118,3.198-0.37,5.939-0.862,7.724l1.201,10.25l-20.708,0.365c0,0-4.686,0.192-4.639-2.119c0.07-3.555,9.145-2.617,12.354-3.966
	c1.512-0.634,4.855-4.41,4.855-4.41l-1.454-7.844H100.909V157.014h327.484v108.542h-0.734c-0.425,0-0.847,0.012-1.266,0.032v-80.575
	H102.909v229.988h263.297l-8.812-47.544c-0.003-0.006-0.006-0.01-0.01-0.016c-6.407-10.253,33.962-22.428,33.962-22.428l0.662-0.216
	l-16.356-36.16c-8.9,9.952-19.618,17.771-26.849,16.209c-1.533-0.074-2.677-0.474-3.008-1.17
	c-1.972-4.145-0.214-17.232,3.659-26.909c1.019,1.337,2.422,2.29,3.979,2.756c1.395,0.417,2.907,0.445,4.375,0.005l1.849,1.634
	l1.176,1.04c1.719,1.519,4.34,1.356,5.857-0.36c1.516-1.716,1.354-4.337-0.364-5.856l-3.131-2.767
	c0.185-1.305,0.05-2.677-0.471-3.995c-0.337-0.854-0.812-1.608-1.379-2.264c1.933-2.806,4.038-5.753,5.929-8.159
	c0.156-0.219,0.326-0.427,0.502-0.631c1.342-1.671,2.554-3.027,3.48-3.795c0.553-0.458,1.126-0.848,1.712-1.185l0.349,0.284
	l1.558,1.271l0.684,3.872c0,0-3,14,2.75,25c0.194,0.371,0.396,0.768,0.604,1.18c5.278,10.491,14.695,33.73,16.74,38.81
	c0.259,0.641,0.406,1.01,0.406,1.01l8.734-3.339c0.115,0.743,0.336,1.459,0.652,2.129c0.904,1.92,2.575,3.457,4.754,4.099
	c0.965,0.286,1.941,0.364,2.887,0.273c2.567-0.248,4.902-1.789,6.137-4.152c0.233-0.447,0.43-0.923,0.578-1.426
	c0.135-0.458,0.22-0.918,0.271-1.376c0.022-0.207,0.035-0.413,0.041-0.619c0.047-1.513-0.344-2.977-1.089-4.233
	c-0.954-1.61-2.479-2.878-4.404-3.447c-0.487-0.144-0.978-0.233-1.466-0.277c-0.92-0.084-1.828,0.008-2.692,0.244
	c-5.447-11.911-17.71-39.377-19.45-48.947c-0.162-0.887-0.235-1.626-0.202-2.179c0.009-0.146,0.021-0.293,0.03-0.44
	c0.063-0.882,0.15-1.778,0.261-2.675c0.546-4.46,1.599-8.947,2.35-11.811c0.39-1.488,0.697-2.533,0.811-2.912
	c1.643,0.271,3.219,0.799,4.606,1.621c3.486,0.817,7.893,3.022,12.55,6.094c4.981,3.286,10.248,7.562,14.977,12.192
	c0.679,0.665,1.346,1.336,2,2.013c3.328,3.446,6.303,7.031,8.609,10.508c3.859,5.818,5.844,11.332,4.443,15.377
	c-0.198,0.571-0.54,0.99-0.977,1.306c-0.379,1.406-1.106,3.129-2.086,5.033c-0.416,0.808-0.877,1.648-1.381,2.514
	c-1.019,1.752-2.202,3.599-3.506,5.47l3.506,6.395l2.188,3.992L438.71,336.148z M424.172,308.65l0.45,0.82
	c0.155-0.126,0.314-0.245,0.476-0.36C424.787,308.958,424.479,308.805,424.172,308.65z M406.876,415.001l-6.744-36.666l-1.033-5.617
	c-0.332-0.987-0.682-2.089-1.062-3.354c-0.026-0.089-0.039-0.179-0.063-0.269c-0.33,0.082-0.627,0.168-0.86,0.269
	c-10.907,2.181-17.716,4.882-22.547,6.474c0.213,0.777,0.405,1.589,0.572,2.438c0.68,3.443,0.963,7.481,0.673,12.233
	c-0.321,5.285,0.239,16.033,0.072,24.492H406.876z M361.032,253.73c-0.354,0.348-0.18,1.074,0.38,1.628
	c0.559,0.56,1.297,0.725,1.642,0.382c0.352-0.346,0.176-1.075-0.382-1.63C362.116,253.554,361.378,253.388,361.032,253.73z
	 M354.611,261.605c-0.353,0.348-0.18,1.076,0.378,1.627c0.562,0.556,1.297,0.727,1.643,0.384c0.354-0.347,0.176-1.075-0.381-1.63
	C355.692,261.43,354.955,261.261,354.611,261.605z M369.355,247.588c1.037-0.402,2.45-0.013,3.837,0.645
	c0.062,0.029,0.123,0.054,0.185,0.084c2.41,1.187,4.684,3.135,4.684,3.135c-0.852-1.89,0.175-2.983-2.25-6.617
	c-5.081-7.625-12.346-10.648-12.346-10.648c-6.741-1.729-9.096,1.86-11.517,5.734c0,0-4.346,0.668-9.544,1.913
	c-7.782,1.859-9.096,8.247-7.218,12.621c2.286,0.789,4.411,2.013,6.244,3.634c0.823,0.728,1.561,1.525,2.232,2.367
	c2.378,0.589,4.293,0.667,4.293,0.667l10.445-12.81c0.535,0.198,1.095,0.302,1.68,0.264c4.439-0.286,6.22,1.073,7.256,1.919
	c0.864,0.705,2.197,1.466,2.622,1.702c0.084,0.047,0.146,0.081,0.146,0.081s-0.035-0.058-0.09-0.15
	C369.59,251.405,367.809,248.188,369.355,247.588z M232.403,212.011H130.408v4.5h101.995V212.011z M232.403,231.51H130.408v4.5
	h101.995V231.51z M232.403,251.009H130.408v4.5h101.995V251.009z M232.403,270.508H130.408v4.5h101.995V270.508z M130.408,387.502
	h13.606V285.508h-13.606V387.502z M171.478,387.502v-71.996H157.87v71.996H171.478z M200.44,387.502v-49.497h-13.607v49.497H200.44z
	 M226.403,387.501v-29.997h-13.606v29.997H226.403z M332.898,320.006h-82.496v4.5h82.496V320.006z M332.898,339.505h-82.496v4.5
	h82.496V339.505z M332.898,359.004h-82.496v4.5h82.496V359.004z M250.402,383.003h82.496v-4.5h-82.496V383.003z M254.88,248.896
	c0,16.538,13.406,29.944,29.944,29.944c16.537,0,29.944-13.406,29.944-29.944c0-5.22-1.339-10.126-3.687-14.398l-26.258,14.398
	v-29.943C268.286,218.953,254.88,232.359,254.88,248.896z M290.269,209.426v29.943l26.258-14.398
	C311.434,215.706,301.586,209.426,290.269,209.426z"></path>
</svg>