<?xml version="1.0" standalone="no"?>
<svg version="1.1" id="Layer_1" xmlns="http://www.w3.org/2000/svg" xmlns:xlink="http://www.w3.org/1999/xlink" x="0px" y="0px" width="595.279px" height="595.279px" viewBox="0 0.001 595.279 595.279" enable-background="new 0 0.001 595.279 595.279" xml:space="preserve">
<path id="color_x5F_5" fill="#FFD2BB" d="M130.204,234.958c2.189,3.413,5.341,5.878,8.216,8.425l-1.716-12.836
	c2.551,0.388,4.889,0.437,6.662,0.091c5.655-1.1,3.98-5.847,2.097-11.928c0.569-0.229,1.062-0.498,1.392-0.78
	c1.477-1.271-0.68-2.335-2.186-4.084c-0.22-0.255-0.461-0.477-0.713-0.675c-0.041-0.184-0.079-0.368-0.115-0.555
	c-0.504-2.59-1.513-4.922-2.857-6.906l-0.103,0.021c-0.694,0.135-9.344,2.108-8.417,2.191c2.389,3.333,3.367,7.028,2.568,10.131
	c-0.651-1.018-1.524-1.878-2.594-2.399c-2.04-0.999-4.911-0.596-6.182,1.461c-0.441,0.717-0.541,1.484-0.402,2.217l5.242,3.693
	C131.096,223.025,126.483,229.157,130.204,234.958z M139.3,214.228c-0.172-0.781,0.077-1.496,0.563-1.596
	c0.479-0.101,1.014,0.452,1.184,1.235c0.169,0.782-0.077,1.498-0.562,1.599C140.006,215.564,139.472,215.012,139.3,214.228z
	 M519.907,243.65l19.918,0.945l-2.016-18.251c-0.229,0.093-0.457,0.205-0.684,0.288c-0.029,0.014-0.055,0.022-0.088,0.029
	c-2.586,0.932-5.164,1.246-7.44,0.94c-1.212-0.154-2.335-0.483-3.334-0.986c0.685-0.019,1.364-0.157,2.007-0.408
	c0.672-0.257,1.301-0.649,1.855-1.164c1.273-1.173,1.794-2.969,0.803-4.477c-1.33-2.019-4.212-2.337-6.223-1.279
	c-1.054,0.552-1.9,1.438-2.521,2.474c-0.889-3.078-0.02-6.8,2.271-10.201c0.923-0.111-7.779-1.829-8.479-1.944l-0.103-0.017
	c-1.287,2.021-2.226,4.383-2.653,6.986c-0.031,0.187-0.063,0.374-0.1,0.558c-0.245,0.205-0.479,0.434-0.692,0.695
	c-1.453,1.792-3.578,2.919-2.064,4.146c0.337,0.273,0.836,0.527,1.412,0.739c-1.704,6.134-3.239,10.928,2.447,11.862
	c1.781,0.293,4.118,0.176,6.657-0.287L519.907,243.65z M516.659,219.333c-0.488-0.086-0.755-0.795-0.609-1.582
	c0.146-0.788,0.665-1.356,1.148-1.27c0.488,0.086,0.757,0.794,0.608,1.58C517.657,218.85,517.139,219.418,516.659,219.333z
	 M172.412,342.172c0,4.14-3.356,7.496-7.497,7.496s-7.497-3.356-7.497-7.496c0-2.083-0.562-5.317-0.595-8.02
	c-7.123-6.428-17.911-20.882-19.408-24.3c-0.338-0.771-0.799-1.727-1.304-2.771c-1.109-2.297-2.451-5.073-3.309-7.597
	c-6.691-8.876-13.655-20.293-15.164-24.084c-0.055-0.138-0.12-0.29-0.16-0.407c-1.983-5.795,0.631-11.937,5.839-13.719
	c5.208-1.782,11.037,1.471,13.02,7.266c0.063,0.186,0.139,0.406,0.222,0.648c1.091,3.19,3.79,11.143,6.079,19.259
	c0.743,2.631,1.442,5.278,2.029,7.786c3.583,2.213,6.771,4.975,7.689,7.07c1.435,3.273,7.992,18.165,10.146,27.104
	C166.881,332.849,172.412,338.913,172.412,342.172z M466.526,264.166c0,2.194-0.774,4.207-2.064,5.781
	c-1.095,1.337-2.563,2.355-4.244,2.902c-0.891,0.29-1.839,0.451-2.826,0.451c-0.723,0-1.421-0.093-2.096-0.251
	c-4.032-0.948-7.038-4.561-7.038-8.883c0-3.035,1.486-5.716,3.764-7.377c1.321-0.963,2.907-1.581,4.632-1.72
	c0.244-0.02,0.489-0.037,0.738-0.037c4.018,0,7.422,2.597,8.645,6.201C466.348,262.155,466.526,263.139,466.526,264.166z"></path>
<path id="color_x5F_4" fill="#00CEC9" d="M140.484,215.465c-0.479,0.099-1.012-0.453-1.185-1.237
	c-0.172-0.781,0.077-1.496,0.563-1.596c0.479-0.101,1.014,0.452,1.184,1.235C141.215,214.649,140.969,215.365,140.484,215.465z
	 M517.806,218.062c0.148-0.786-0.12-1.493-0.608-1.58c-0.483-0.086-1.002,0.481-1.148,1.27c-0.146,0.786,0.121,1.495,0.609,1.582
	C517.139,219.418,517.657,218.85,517.806,218.062z M516.54,195.178l-2.695-2.765c-2.657,1.205-4.691,3.693-5.205,6.816
	c-0.807,4.901,2.42,9.516,7.229,10.368l0.006,0l0.103,0.017c0.699,0.115,9.401,1.833,8.479,1.944
	c-2.29,3.401-3.159,7.124-2.271,10.201c0.621-1.037,1.468-1.922,2.521-2.474c2.011-1.058,4.893-0.74,6.223,1.279
	c0.991,1.508,0.471,3.303-0.803,4.477c-0.555,0.515-1.184,0.907-1.855,1.164c-0.643,0.251-1.322,0.39-2.007,0.408
	c0.999,0.502,2.122,0.832,3.334,0.986c2.276,0.306,4.854-0.008,7.44-0.94c0.033-0.006,0.059-0.015,0.088-0.029
	c0.227-0.083,0.455-0.195,0.684-0.288c0.995-0.402,1.988-0.87,2.959-1.454c0.514-0.31,1.019-0.645,1.521-1
	c1.055-0.755,2.64-2.409,4.001-4.492C539.624,215.93,516.276,198.96,516.54,195.178z M186,351.608h-30.833v33.801H186V351.608z
	 M180.827,352.573c0-5.75-4.678-10.429-10.428-10.429s-10.428,4.679-10.428,10.429s4.678,10.428,10.428,10.428
	S180.827,358.323,180.827,352.573z M178.827,352.573c0,4.647-3.781,8.428-8.428,8.428s-8.428-3.78-8.428-8.428
	s3.781-8.429,8.428-8.429S178.827,347.926,178.827,352.573z M143.97,249.855c-0.194-0.37-0.398-0.732-0.622-1.082
	c-1.295-2.022-3.05-3.727-4.929-5.391c-2.875-2.547-6.026-5.012-8.216-8.425c-3.721-5.801,0.893-11.933,0.893-11.933l-5.242-3.693
	c-0.139-0.732-0.039-1.5,0.402-2.217c1.271-2.057,4.142-2.459,6.182-1.461c1.069,0.521,1.942,1.381,2.594,2.399
	c0.799-3.103-0.18-6.798-2.568-10.131c-0.927-0.083,7.723-2.057,8.417-2.191l0.103-0.021l0.006,0
	c1.604-0.333,1.767-2.51,0.599-5.029l-0.715,0.233c-1.565,3.57-31.745,7.897-38.203,7.621c-0.115,0.25-0.233,0.498-0.342,0.749
	c-4.351,10.007-23.194,49.838-3.415,60.99c3.054,1.939,5.997,3.655,9.721,4.569c1.823,0.448,3.832,0.707,6.138,0.7
	c0.905-0.003,1.867-0.056,2.869-0.143c-0.055-0.138-0.12-0.29-0.16-0.407c-1.983-5.795,0.631-11.937,5.839-13.719
	c5.208-1.782,11.037,1.471,13.02,7.266c0.063,0.186,0.139,0.406,0.222,0.648c5.298-2.967,8.257-4.383,8.858-11.387
	c0.012-0.139,0.026-0.272,0.036-0.415C145.667,254.348,145.06,251.93,143.97,249.855z M71.221,425.276v-25.083l-15.555,7.808
	L71.221,425.276z M429.209,118.194l-4.902,0.983l27.715,137.612c1.321-0.963,2.907-1.581,4.632-1.72L429.209,118.194z
	 M460.218,272.849c-0.891,0.29-1.839,0.451-2.826,0.451c-0.723,0-1.421-0.093-2.096-0.251l11.162,55.423l13.283,65.956
	l12.214,60.645l3.627-5.851L475.21,347.618l-4.103-20.46L460.218,272.849z"></path>
<path id="color_x5F_3" fill="#E84393" d="M53.985,491.737c-3.224,0-3.224-5,0-5c41.723,0,83.446,0,125.168,0
	c128.125,0,256.251,0,384.377,0c3.225,0,3.225,5,0,5c-41.723,0-83.444,0-125.167,0C310.238,491.737,182.112,491.737,53.985,491.737
	L53.985,491.737z M129.65,453.064c-0.236-8.927-11.084-8.57-16.037,0c-4.953,8.57,0,34.994,0,34.994l4.164,0.757
	c-0.736-5.313-0.636-10.729-0.261-16.077c0.454-6.455,0.943-13.052,3.25-19.154c0.471-1.244,2.486-0.705,2.01,0.554
	c-0.946,2.501-1.581,5.093-2.042,7.723c-0.409,2.785-0.731,5.581-0.972,8.386c-0.06,0.832-0.113,1.663-0.163,2.492
	c-0.327,5.502-0.488,11.029,0.34,16.471l5.464,0.992c0,0-0.235-4.284,0.944-13.213C127.528,468.061,129.885,461.991,129.65,453.064z
	 M104.626,483.09c-1.225-0.933-2.463-1.857-3.633-2.864c-4.382-3.773-8.859-7.415-12.893-11.571
	c-0.936-0.964,0.537-2.438,1.474-1.473c4.255,4.386,8.953,8.537,13.779,12.288c2.394,1.86,4.902,3.62,7.008,5.76
	c-0.794-3.279-1.422-6.59-1.761-9.943c-4.598-5.519-10.017-10.962-14.369-12.25c-9.49-2.811-17.607,4.395-11.636,11.035
	c5.844,6.496,11.61,9.306,18.411,14.732h9.286C108.422,486.882,106.531,484.978,104.626,483.09z M144.335,463.384
	c-4.351,1.288-10.574,6.732-15.172,12.25c-0.421,4.17-0.638,8.272-1.599,12.33c3.18-3.722,6.866-6.928,10.543-10.183
	c4.012-3.553,7.645-7.483,12.057-10.563c1.104-0.771,2.145,1.037,1.051,1.8c-4.587,3.201-8.487,7.355-12.641,11.083
	c-3.229,2.897-6.493,5.763-9.315,9.05h8.301c6.801-5.426,12.567-8.235,18.411-14.731
	C161.942,467.779,153.825,460.573,144.335,463.384z M509.166,452.1c-0.236-8.927-11.084-8.57-16.035,0
	c-4.953,8.57,0,34.994,0,34.994l4.164,0.757c-0.736-5.313-0.637-10.729-0.262-16.077c0.453-6.455,0.943-13.052,3.25-19.154
	c0.471-1.244,2.486-0.705,2.01,0.554c-0.945,2.501-1.58,5.093-2.041,7.723c-0.41,2.785-0.732,5.581-0.973,8.386
	c-0.059,0.832-0.113,1.663-0.162,2.492c-0.328,5.502-0.488,11.029,0.34,16.471l5.465,0.992c0,0-0.236-4.284,0.943-13.213
	C507.045,467.097,509.402,461.027,509.166,452.1z M485.014,486.052c-1.225-0.933-2.463-1.857-3.633-2.864
	c-4.381-3.773-8.859-7.415-12.893-11.571c-0.936-0.964,0.537-2.438,1.475-1.473c4.254,4.386,8.951,8.537,13.779,12.288
	c2.393,1.86,4.902,3.62,7.008,5.76c-0.795-3.279-1.422-6.59-1.762-9.943c-4.598-5.519-10.018-10.962-14.369-12.25
	c-9.49-2.811-17.605,4.395-11.635,11.035c5.844,6.496,11.609,9.306,18.41,14.732h9.287
	C488.811,489.844,486.919,487.94,485.014,486.052z M524.723,462.405c-4.352,1.288-10.574,6.732-15.172,12.25
	c-0.422,4.17-0.639,8.272-1.6,12.33c3.182-3.722,6.867-6.928,10.543-10.183c4.012-3.553,7.646-7.483,12.059-10.563
	c1.104-0.771,2.145,1.037,1.051,1.8c-4.588,3.201-8.488,7.355-12.643,11.083c-3.229,2.897-6.492,5.763-9.314,9.05h8.301
	c6.801-5.426,12.568-8.235,18.41-14.731C542.331,466.801,534.214,459.594,524.723,462.405z"></path>
<path id="color_x5F_2" fill="#FBC02D" d="M336.691,266.306h11.281v14.967h-78.429v-14.967h11.288H336.691z M347.976,391.945h-11.285
	h-55.86h-11.284v14.967h78.429V391.945z M190.758,139.949v18.319h13.003h210h12.996v-18.319H190.758z M389.752,173.959h-19.5v6.551
	h19.5V173.959z M260.751,214.346h-19.5v6.551h19.5V214.346z M219.889,304.278h19.5v-6.551h-19.5V304.278z M231.501,369.552h19.5
	v-6.551h-19.5V369.552z M299.008,296.09v6.551h19.5v-6.551H299.008z M370.252,299.546h19.5v-6.551h-19.5V299.546z M370.252,433.552
	h19.5v-6.551h-19.5V433.552z M219.889,433.552h19.5v-6.551h-19.5V433.552z M318.508,447.276v-6.551h-19.5v6.551H318.508z
	 M355.252,366.276h19.5v-6.551h-19.5V366.276z M203.761,468.001h-13.003v18.319h236v-18.319h-12.996H203.761z"></path>
<path id="color_x5F_1" fill="#0984E3" d="M203.761,158.269v309.732h210V158.269H203.761z M219.889,297.727h19.5v6.551h-19.5V297.727
	z M239.389,433.552h-19.5v-6.551h19.5V433.552z M251.001,369.552h-19.5v-6.551h19.5V369.552z M260.751,220.897h-19.5v-6.551h19.5
	V220.897z M269.543,266.306h11.288v-73.256h55.86v73.256h11.281v14.967h-78.429V266.306z M318.508,296.09v6.551h-19.5v-6.551
	H318.508z M318.508,447.276h-19.5v-6.551h19.5V447.276z M347.976,406.912h-78.429v-14.967h11.284V318.64h55.86v73.305h11.285
	V406.912z M355.252,359.725h19.5v6.551h-19.5V359.725z M389.752,433.552h-19.5v-6.551h19.5V433.552z M389.752,299.546h-19.5v-6.551
	h19.5V299.546z M389.752,180.51h-19.5v-6.551h19.5V180.51z M153.291,196.868l-11.703,3.813l-0.715,0.233
	c-1.565,3.57-31.745,7.897-38.203,7.621c-1.066-0.045-1.487-0.217-1.024-0.538c-0.567-3.357-0.288-6.823,0.855-10.047
	c0.994-2.806,2.639-5.43,4.916-7.637c5.524-5.353,13.348-6.868,20.191-4.601c2.985,0.983,5.781,2.687,8.124,5.105
	c1.545,1.595,2.763,3.388,3.675,5.289l12.526-4.082c1.361-0.443,2.766,0.283,3.141,1.621
	C155.449,194.981,154.651,196.425,153.291,196.868z M551.897,210.376c-0.483,3.387-1.847,6.585-3.909,9.295
	c0.305,0.583-0.375,0.415-1.697-0.272c-6.667-3.468-30.015-20.438-29.751-24.22l-2.695-2.765l-6.423-6.586
	c-0.998-1.024-1.034-2.673-0.082-3.682c0.954-1.011,2.534-1.001,3.534,0.023l9.196,9.433c1.691-1.26,3.604-2.281,5.712-2.976
	c3.198-1.053,6.466-1.264,9.565-0.748c7.113,1.171,13.338,6.146,15.743,13.453C552.083,204.342,552.321,207.43,551.897,210.376z
	 M466.458,328.472l13.283,65.956c-8.212-14.062-28.017-48.571-27.605-53.643c0.43-5.271,4.263-9.429,9.124-10.441
	C462.754,329.701,464.511,329.076,466.458,328.472z M141.099,375.001c-0.885,7.848-20.332,72.583-20.332,72.583
	s-2.999-23.686-2.999-31.583c0-2.525-0.777-15.967-0.085-28.122c-17.427,4.874-46.461,12.314-46.461,12.314s16.048-11,21.722-14.071
	c2.306-1.247,16.858-10.088,27.182-14.051c0.132-0.374,0.27-0.731,0.414-1.07c-11.134-17.857-18.734-30.498-18.734-40.188
	c0-0.803,0.043-1.596,0.125-2.377h-0.569c0,0,0.294-0.526,0.775-1.459c0.653-3.806,2.258-7.284,4.563-10.184
	c2.553-6.615,5.002-15.049,4.712-22.558c-0.192-4.964-1.333-12.072-2.779-19.394c1.823,0.448,3.832,0.707,6.138,0.7
	c0.905-0.003,1.867-0.056,2.869-0.143c1.508,3.792,8.472,15.208,15.164,24.084c0.857,2.523,2.199,5.3,3.309,7.597
	C136.313,322.563,144.398,345.743,141.099,375.001z M145.418,257.801c1.655,2.979,3.039,5.833,3.582,7.867
	c1.436,5.383-2.726,15.78-6.36,22.778c-2.29-8.116-4.988-16.068-6.079-19.259C141.858,266.22,144.818,264.804,145.418,257.801z
	 M533.49,373.001c4.646,10.905-1.229,39.083-1.229,43c0,7.897-5.51,45.779-5.51,45.779s-12.937-76.932-13.821-84.779
	c-0.887-7.867-1.567-17.33-2.09-27.423c-9.725-1.043-24.23-3.104-35.918-5.802c0.027,0.955,0.129,2.264,0.288,3.842l-4.103-20.46
	c11.783-3.05,27.824-5.415,38.651-6.616c-0.488-19.088-0.59-37.279-0.595-48.688c-0.055-0.002-0.11-0.003-0.166-0.005
	c-7.449,1.114-18.625,1.058-22.131,1.058c-3.137,0-13.898-1.158-22.405-2.958c1.29-1.575,2.064-3.587,2.064-5.781
	c0-1.027-0.178-2.012-0.49-2.933c9.704-1.461,22.59-2.476,29.878-2.891c5.836-3.404,13.906-6.854,20.886-9.467l3.563-5.134
	l19.146,0.853c0,0,0,0,0.92,2.119c2.742,1.908,4.781,4.835,5.477,8.373c1.123,5.71-1.585,11.273-6.33,14.068
	c-0.347,9.115-0.715,18.761-0.959,25.082c-0.291,7.509-0.217,20.433,2.049,30.766C542.971,327.901,544.624,355.143,533.49,373.001z"></path>
</svg>